<svg xmlns="http://www.w3.org/2000/svg" viewBox="0 0 128 128" width="128" height="128">
  <defs>
    <style>
      .bg { fill: #0a0a0a; }
    </style>
  </defs>

  <!-- Background -->
  <rect class="bg" width="128" height="128" rx="8"/>

  <!-- Border glow -->
  <rect x="1" y="1" width="126" height="126" rx="7" fill="none" stroke="#00ff41" stroke-width="1.5" opacity="0.4"/>

  <!-- Stars -->
  <rect x="10" y="8" width="1.5" height="1.5" fill="white" opacity="0.6"/>
  <rect x="35" y="15" width="1" height="1" fill="white" opacity="0.4"/>
  <rect x="62" y="5" width="1.5" height="1.5" fill="white" opacity="0.7"/>
  <rect x="90" y="12" width="1" height="1" fill="white" opacity="0.5"/>
  <rect x="115" y="7" width="1.5" height="1.5" fill="white" opacity="0.6"/>
  <rect x="20" y="22" width="1" height="1" fill="white" opacity="0.3"/>
  <rect x="105" y="20" width="1" height="1" fill="white" opacity="0.4"/>
  <rect x="50" y="100" width="1" height="1" fill="white" opacity="0.3"/>
  <rect x="80" y="105" width="1.5" height="1.5" fill="white" opacity="0.5"/>
  <rect x="25" y="95" width="1" height="1" fill="white" opacity="0.4"/>
  <rect x="100" y="98" width="1" height="1" fill="white" opacity="0.3"/>
  <rect x="45" y="25" width="1" height="1" fill="white" opacity="0.5"/>
  <rect x="75" y="18" width="1" height="1" fill="white" opacity="0.3"/>

  <!-- Row 0: Squid (magenta #ff00ff) — sprite "squidA" 8x8, 3 across -->
  <!-- Squid 1 at (14, 18), pixel size 2.5 -->
  <g fill="#ff00ff">
    <!-- 00011000 -->
    <rect x="21.5" y="18" width="2.5" height="2.5"/><rect x="24" y="18" width="2.5" height="2.5"/>
    <!-- 00111100 -->
    <rect x="19" y="20.5" width="2.5" height="2.5"/><rect x="21.5" y="20.5" width="2.5" height="2.5"/><rect x="24" y="20.5" width="2.5" height="2.5"/><rect x="26.5" y="20.5" width="2.5" height="2.5"/>
    <!-- 01111110 -->
    <rect x="16.5" y="23" width="2.5" height="2.5"/><rect x="19" y="23" width="2.5" height="2.5"/><rect x="21.5" y="23" width="2.5" height="2.5"/><rect x="24" y="23" width="2.5" height="2.5"/><rect x="26.5" y="23" width="2.5" height="2.5"/><rect x="29" y="23" width="2.5" height="2.5"/>
    <!-- 11011011 -->
    <rect x="14" y="25.5" width="2.5" height="2.5"/><rect x="16.5" y="25.5" width="2.5" height="2.5"/><rect x="21.5" y="25.5" width="2.5" height="2.5"/><rect x="24" y="25.5" width="2.5" height="2.5"/><rect x="29" y="25.5" width="2.5" height="2.5"/><rect x="31.5" y="25.5" width="2.5" height="2.5"/>
    <!-- 11111111 -->
    <rect x="14" y="28" width="2.5" height="2.5"/><rect x="16.5" y="28" width="2.5" height="2.5"/><rect x="19" y="28" width="2.5" height="2.5"/><rect x="21.5" y="28" width="2.5" height="2.5"/><rect x="24" y="28" width="2.5" height="2.5"/><rect x="26.5" y="28" width="2.5" height="2.5"/><rect x="29" y="28" width="2.5" height="2.5"/><rect x="31.5" y="28" width="2.5" height="2.5"/>
    <!-- 00100100 -->
    <rect x="19" y="30.5" width="2.5" height="2.5"/><rect x="26.5" y="30.5" width="2.5" height="2.5"/>
    <!-- 01011010 -->
    <rect x="16.5" y="33" width="2.5" height="2.5"/><rect x="21.5" y="33" width="2.5" height="2.5"/><rect x="24" y="33" width="2.5" height="2.5"/><rect x="29" y="33" width="2.5" height="2.5"/>
    <!-- 10100101 -->
    <rect x="14" y="35.5" width="2.5" height="2.5"/><rect x="19" y="35.5" width="2.5" height="2.5"/><rect x="26.5" y="35.5" width="2.5" height="2.5"/><rect x="31.5" y="35.5" width="2.5" height="2.5"/>
  </g>

  <!-- Squid 2 at (50, 18) -->
  <g fill="#ff00ff">
    <rect x="57.5" y="18" width="2.5" height="2.5"/><rect x="60" y="18" width="2.5" height="2.5"/>
    <rect x="55" y="20.5" width="2.5" height="2.5"/><rect x="57.5" y="20.5" width="2.5" height="2.5"/><rect x="60" y="20.5" width="2.5" height="2.5"/><rect x="62.5" y="20.5" width="2.5" height="2.5"/>
    <rect x="52.5" y="23" width="2.5" height="2.5"/><rect x="55" y="23" width="2.5" height="2.5"/><rect x="57.5" y="23" width="2.5" height="2.5"/><rect x="60" y="23" width="2.5" height="2.5"/><rect x="62.5" y="23" width="2.5" height="2.5"/><rect x="65" y="23" width="2.5" height="2.5"/>
    <rect x="50" y="25.5" width="2.5" height="2.5"/><rect x="52.5" y="25.5" width="2.5" height="2.5"/><rect x="57.5" y="25.5" width="2.5" height="2.5"/><rect x="60" y="25.5" width="2.5" height="2.5"/><rect x="65" y="25.5" width="2.5" height="2.5"/><rect x="67.5" y="25.5" width="2.5" height="2.5"/>
    <rect x="50" y="28" width="2.5" height="2.5"/><rect x="52.5" y="28" width="2.5" height="2.5"/><rect x="55" y="28" width="2.5" height="2.5"/><rect x="57.5" y="28" width="2.5" height="2.5"/><rect x="60" y="28" width="2.5" height="2.5"/><rect x="62.5" y="28" width="2.5" height="2.5"/><rect x="65" y="28" width="2.5" height="2.5"/><rect x="67.5" y="28" width="2.5" height="2.5"/>
    <rect x="55" y="30.5" width="2.5" height="2.5"/><rect x="62.5" y="30.5" width="2.5" height="2.5"/>
    <rect x="52.5" y="33" width="2.5" height="2.5"/><rect x="57.5" y="33" width="2.5" height="2.5"/><rect x="60" y="33" width="2.5" height="2.5"/><rect x="65" y="33" width="2.5" height="2.5"/>
    <rect x="50" y="35.5" width="2.5" height="2.5"/><rect x="55" y="35.5" width="2.5" height="2.5"/><rect x="62.5" y="35.5" width="2.5" height="2.5"/><rect x="67.5" y="35.5" width="2.5" height="2.5"/>
  </g>

  <!-- Squid 3 at (86, 18) -->
  <g fill="#ff00ff">
    <rect x="93.5" y="18" width="2.5" height="2.5"/><rect x="96" y="18" width="2.5" height="2.5"/>
    <rect x="91" y="20.5" width="2.5" height="2.5"/><rect x="93.5" y="20.5" width="2.5" height="2.5"/><rect x="96" y="20.5" width="2.5" height="2.5"/><rect x="98.5" y="20.5" width="2.5" height="2.5"/>
    <rect x="88.5" y="23" width="2.5" height="2.5"/><rect x="91" y="23" width="2.5" height="2.5"/><rect x="93.5" y="23" width="2.5" height="2.5"/><rect x="96" y="23" width="2.5" height="2.5"/><rect x="98.5" y="23" width="2.5" height="2.5"/><rect x="101" y="23" width="2.5" height="2.5"/>
    <rect x="86" y="25.5" width="2.5" height="2.5"/><rect x="88.5" y="25.5" width="2.5" height="2.5"/><rect x="93.5" y="25.5" width="2.5" height="2.5"/><rect x="96" y="25.5" width="2.5" height="2.5"/><rect x="101" y="25.5" width="2.5" height="2.5"/><rect x="103.5" y="25.5" width="2.5" height="2.5"/>
    <rect x="86" y="28" width="2.5" height="2.5"/><rect x="88.5" y="28" width="2.5" height="2.5"/><rect x="91" y="28" width="2.5" height="2.5"/><rect x="93.5" y="28" width="2.5" height="2.5"/><rect x="96" y="28" width="2.5" height="2.5"/><rect x="98.5" y="28" width="2.5" height="2.5"/><rect x="101" y="28" width="2.5" height="2.5"/><rect x="103.5" y="28" width="2.5" height="2.5"/>
    <rect x="91" y="30.5" width="2.5" height="2.5"/><rect x="98.5" y="30.5" width="2.5" height="2.5"/>
    <rect x="88.5" y="33" width="2.5" height="2.5"/><rect x="93.5" y="33" width="2.5" height="2.5"/><rect x="96" y="33" width="2.5" height="2.5"/><rect x="101" y="33" width="2.5" height="2.5"/>
    <rect x="86" y="35.5" width="2.5" height="2.5"/><rect x="91" y="35.5" width="2.5" height="2.5"/><rect x="98.5" y="35.5" width="2.5" height="2.5"/><rect x="103.5" y="35.5" width="2.5" height="2.5"/>
  </g>

  <!-- Row 1: Crab (yellow #ffcc00) — sprite "crabA" 11x8, 3 across, pixel size ~2 -->
  <!-- Crab 1 at (12, 44) -->
  <g fill="#ffcc00">
    <!-- 00100000100 -->
    <rect x="16" y="44" width="2" height="2"/><rect x="28" y="44" width="2" height="2"/>
    <!-- 00010001000 -->
    <rect x="14" y="46" width="2" height="2"/><rect x="26" y="46" width="2" height="2"/>
    <!-- 00111111100 -->
    <rect x="16" y="48" width="2" height="2"/><rect x="18" y="48" width="2" height="2"/><rect x="20" y="48" width="2" height="2"/><rect x="22" y="48" width="2" height="2"/><rect x="24" y="48" width="2" height="2"/><rect x="26" y="48" width="2" height="2"/><rect x="28" y="48" width="2" height="2"/>
    <!-- 01101110110 -->
    <rect x="14" y="50" width="2" height="2"/><rect x="16" y="50" width="2" height="2"/><rect x="20" y="50" width="2" height="2"/><rect x="22" y="50" width="2" height="2"/><rect x="24" y="50" width="2" height="2"/><rect x="28" y="50" width="2" height="2"/><rect x="30" y="50" width="2" height="2"/>
    <!-- 11111111111 -->
    <rect x="12" y="52" width="2" height="2"/><rect x="14" y="52" width="2" height="2"/><rect x="16" y="52" width="2" height="2"/><rect x="18" y="52" width="2" height="2"/><rect x="20" y="52" width="2" height="2"/><rect x="22" y="52" width="2" height="2"/><rect x="24" y="52" width="2" height="2"/><rect x="26" y="52" width="2" height="2"/><rect x="28" y="52" width="2" height="2"/><rect x="30" y="52" width="2" height="2"/><rect x="32" y="52" width="2" height="2"/>
    <!-- 10111111101 -->
    <rect x="12" y="54" width="2" height="2"/><rect x="16" y="54" width="2" height="2"/><rect x="18" y="54" width="2" height="2"/><rect x="20" y="54" width="2" height="2"/><rect x="22" y="54" width="2" height="2"/><rect x="24" y="54" width="2" height="2"/><rect x="26" y="54" width="2" height="2"/><rect x="28" y="54" width="2" height="2"/><rect x="32" y="54" width="2" height="2"/>
    <!-- 10100000101 -->
    <rect x="12" y="56" width="2" height="2"/><rect x="16" y="56" width="2" height="2"/><rect x="28" y="56" width="2" height="2"/><rect x="32" y="56" width="2" height="2"/>
    <!-- 00011011000 -->
    <rect x="18" y="58" width="2" height="2"/><rect x="20" y="58" width="2" height="2"/><rect x="24" y="58" width="2" height="2"/><rect x="26" y="58" width="2" height="2"/>
  </g>

  <!-- Crab 2 at (48, 44) -->
  <g fill="#ffcc00">
    <rect x="52" y="44" width="2" height="2"/><rect x="64" y="44" width="2" height="2"/>
    <rect x="50" y="46" width="2" height="2"/><rect x="62" y="46" width="2" height="2"/>
    <rect x="52" y="48" width="2" height="2"/><rect x="54" y="48" width="2" height="2"/><rect x="56" y="48" width="2" height="2"/><rect x="58" y="48" width="2" height="2"/><rect x="60" y="48" width="2" height="2"/><rect x="62" y="48" width="2" height="2"/><rect x="64" y="48" width="2" height="2"/>
    <rect x="50" y="50" width="2" height="2"/><rect x="52" y="50" width="2" height="2"/><rect x="56" y="50" width="2" height="2"/><rect x="58" y="50" width="2" height="2"/><rect x="60" y="50" width="2" height="2"/><rect x="64" y="50" width="2" height="2"/><rect x="66" y="50" width="2" height="2"/>
    <rect x="48" y="52" width="2" height="2"/><rect x="50" y="52" width="2" height="2"/><rect x="52" y="52" width="2" height="2"/><rect x="54" y="52" width="2" height="2"/><rect x="56" y="52" width="2" height="2"/><rect x="58" y="52" width="2" height="2"/><rect x="60" y="52" width="2" height="2"/><rect x="62" y="52" width="2" height="2"/><rect x="64" y="52" width="2" height="2"/><rect x="66" y="52" width="2" height="2"/><rect x="68" y="52" width="2" height="2"/>
    <rect x="48" y="54" width="2" height="2"/><rect x="52" y="54" width="2" height="2"/><rect x="54" y="54" width="2" height="2"/><rect x="56" y="54" width="2" height="2"/><rect x="58" y="54" width="2" height="2"/><rect x="60" y="54" width="2" height="2"/><rect x="62" y="54" width="2" height="2"/><rect x="64" y="54" width="2" height="2"/><rect x="68" y="54" width="2" height="2"/>
    <rect x="48" y="56" width="2" height="2"/><rect x="52" y="56" width="2" height="2"/><rect x="64" y="56" width="2" height="2"/><rect x="68" y="56" width="2" height="2"/>
    <rect x="54" y="58" width="2" height="2"/><rect x="56" y="58" width="2" height="2"/><rect x="60" y="58" width="2" height="2"/><rect x="62" y="58" width="2" height="2"/>
  </g>

  <!-- Crab 3 at (84, 44) -->
  <g fill="#ffcc00">
    <rect x="88" y="44" width="2" height="2"/><rect x="100" y="44" width="2" height="2"/>
    <rect x="86" y="46" width="2" height="2"/><rect x="98" y="46" width="2" height="2"/>
    <rect x="88" y="48" width="2" height="2"/><rect x="90" y="48" width="2" height="2"/><rect x="92" y="48" width="2" height="2"/><rect x="94" y="48" width="2" height="2"/><rect x="96" y="48" width="2" height="2"/><rect x="98" y="48" width="2" height="2"/><rect x="100" y="48" width="2" height="2"/>
    <rect x="86" y="50" width="2" height="2"/><rect x="88" y="50" width="2" height="2"/><rect x="92" y="50" width="2" height="2"/><rect x="94" y="50" width="2" height="2"/><rect x="96" y="50" width="2" height="2"/><rect x="100" y="50" width="2" height="2"/><rect x="102" y="50" width="2" height="2"/>
    <rect x="84" y="52" width="2" height="2"/><rect x="86" y="52" width="2" height="2"/><rect x="88" y="52" width="2" height="2"/><rect x="90" y="52" width="2" height="2"/><rect x="92" y="52" width="2" height="2"/><rect x="94" y="52" width="2" height="2"/><rect x="96" y="52" width="2" height="2"/><rect x="98" y="52" width="2" height="2"/><rect x="100" y="52" width="2" height="2"/><rect x="102" y="52" width="2" height="2"/><rect x="104" y="52" width="2" height="2"/>
    <rect x="84" y="54" width="2" height="2"/><rect x="88" y="54" width="2" height="2"/><rect x="90" y="54" width="2" height="2"/><rect x="92" y="54" width="2" height="2"/><rect x="94" y="54" width="2" height="2"/><rect x="96" y="54" width="2" height="2"/><rect x="98" y="54" width="2" height="2"/><rect x="100" y="54" width="2" height="2"/><rect x="104" y="54" width="2" height="2"/>
    <rect x="84" y="56" width="2" height="2"/><rect x="88" y="56" width="2" height="2"/><rect x="100" y="56" width="2" height="2"/><rect x="104" y="56" width="2" height="2"/>
    <rect x="90" y="58" width="2" height="2"/><rect x="92" y="58" width="2" height="2"/><rect x="96" y="58" width="2" height="2"/><rect x="98" y="58" width="2" height="2"/>
  </g>

  <!-- Row 2: Octopus (green #00ff41) — sprite "octopusA" 12x8, 3 across, pixel size ~1.8 -->
  <!-- Octopus 1 at (12, 66) -->
  <g fill="#00ff41">
    <!-- 000011110000 -->
    <rect x="19.2" y="66" width="1.8" height="1.8"/><rect x="21" y="66" width="1.8" height="1.8"/><rect x="22.8" y="66" width="1.8" height="1.8"/><rect x="24.6" y="66" width="1.8" height="1.8"/>
    <!-- 001111111100 -->
    <rect x="15.6" y="67.8" width="1.8" height="1.8"/><rect x="17.4" y="67.8" width="1.8" height="1.8"/><rect x="19.2" y="67.8" width="1.8" height="1.8"/><rect x="21" y="67.8" width="1.8" height="1.8"/><rect x="22.8" y="67.8" width="1.8" height="1.8"/><rect x="24.6" y="67.8" width="1.8" height="1.8"/><rect x="26.4" y="67.8" width="1.8" height="1.8"/><rect x="28.2" y="67.8" width="1.8" height="1.8"/>
    <!-- 011111111110 -->
    <rect x="13.8" y="69.6" width="1.8" height="1.8"/><rect x="15.6" y="69.6" width="1.8" height="1.8"/><rect x="17.4" y="69.6" width="1.8" height="1.8"/><rect x="19.2" y="69.6" width="1.8" height="1.8"/><rect x="21" y="69.6" width="1.8" height="1.8"/><rect x="22.8" y="69.6" width="1.8" height="1.8"/><rect x="24.6" y="69.6" width="1.8" height="1.8"/><rect x="26.4" y="69.6" width="1.8" height="1.8"/><rect x="28.2" y="69.6" width="1.8" height="1.8"/><rect x="30" y="69.6" width="1.8" height="1.8"/>
    <!-- 110011001101 -->
    <rect x="12" y="71.4" width="1.8" height="1.8"/><rect x="13.8" y="71.4" width="1.8" height="1.8"/><rect x="19.2" y="71.4" width="1.8" height="1.8"/><rect x="21" y="71.4" width="1.8" height="1.8"/><rect x="26.4" y="71.4" width="1.8" height="1.8"/><rect x="28.2" y="71.4" width="1.8" height="1.8"/><rect x="31.8" y="71.4" width="1.8" height="1.8"/>
    <!-- 111111111111 -->
    <rect x="12" y="73.2" width="1.8" height="1.8"/><rect x="13.8" y="73.2" width="1.8" height="1.8"/><rect x="15.6" y="73.2" width="1.8" height="1.8"/><rect x="17.4" y="73.2" width="1.8" height="1.8"/><rect x="19.2" y="73.2" width="1.8" height="1.8"/><rect x="21" y="73.2" width="1.8" height="1.8"/><rect x="22.8" y="73.2" width="1.8" height="1.8"/><rect x="24.6" y="73.2" width="1.8" height="1.8"/><rect x="26.4" y="73.2" width="1.8" height="1.8"/><rect x="28.2" y="73.2" width="1.8" height="1.8"/><rect x="30" y="73.2" width="1.8" height="1.8"/><rect x="31.8" y="73.2" width="1.8" height="1.8"/>
    <!-- 001001001000 -->
    <rect x="15.6" y="75" width="1.8" height="1.8"/><rect x="21" y="75" width="1.8" height="1.8"/><rect x="26.4" y="75" width="1.8" height="1.8"/>
    <!-- 010110110100 -->
    <rect x="13.8" y="76.8" width="1.8" height="1.8"/><rect x="17.4" y="76.8" width="1.8" height="1.8"/><rect x="19.2" y="76.8" width="1.8" height="1.8"/><rect x="22.8" y="76.8" width="1.8" height="1.8"/><rect x="24.6" y="76.8" width="1.8" height="1.8"/><rect x="28.2" y="76.8" width="1.8" height="1.8"/>
    <!-- 110000000011 -->
    <rect x="12" y="78.6" width="1.8" height="1.8"/><rect x="13.8" y="78.6" width="1.8" height="1.8"/><rect x="30" y="78.6" width="1.8" height="1.8"/><rect x="31.8" y="78.6" width="1.8" height="1.8"/>
  </g>

  <!-- Octopus 2 at (48, 66) -->
  <g fill="#00ff41">
    <rect x="55.2" y="66" width="1.8" height="1.8"/><rect x="57" y="66" width="1.8" height="1.8"/><rect x="58.8" y="66" width="1.8" height="1.8"/><rect x="60.6" y="66" width="1.8" height="1.8"/>
    <rect x="51.6" y="67.8" width="1.8" height="1.8"/><rect x="53.4" y="67.8" width="1.8" height="1.8"/><rect x="55.2" y="67.8" width="1.8" height="1.8"/><rect x="57" y="67.8" width="1.8" height="1.8"/><rect x="58.8" y="67.8" width="1.8" height="1.8"/><rect x="60.6" y="67.8" width="1.8" height="1.8"/><rect x="62.4" y="67.8" width="1.8" height="1.8"/><rect x="64.2" y="67.8" width="1.8" height="1.8"/>
    <rect x="49.8" y="69.6" width="1.8" height="1.8"/><rect x="51.6" y="69.6" width="1.8" height="1.8"/><rect x="53.4" y="69.6" width="1.8" height="1.8"/><rect x="55.2" y="69.6" width="1.8" height="1.8"/><rect x="57" y="69.6" width="1.8" height="1.8"/><rect x="58.8" y="69.6" width="1.8" height="1.8"/><rect x="60.6" y="69.6" width="1.8" height="1.8"/><rect x="62.4" y="69.6" width="1.8" height="1.8"/><rect x="64.2" y="69.6" width="1.8" height="1.8"/><rect x="66" y="69.6" width="1.8" height="1.8"/>
    <rect x="48" y="71.4" width="1.8" height="1.8"/><rect x="49.8" y="71.4" width="1.8" height="1.8"/><rect x="55.2" y="71.4" width="1.8" height="1.8"/><rect x="57" y="71.4" width="1.8" height="1.8"/><rect x="62.4" y="71.4" width="1.8" height="1.8"/><rect x="64.2" y="71.4" width="1.8" height="1.8"/><rect x="67.8" y="71.4" width="1.8" height="1.8"/>
    <rect x="48" y="73.2" width="1.8" height="1.8"/><rect x="49.8" y="73.2" width="1.8" height="1.8"/><rect x="51.6" y="73.2" width="1.8" height="1.8"/><rect x="53.4" y="73.2" width="1.8" height="1.8"/><rect x="55.2" y="73.2" width="1.8" height="1.8"/><rect x="57" y="73.2" width="1.8" height="1.8"/><rect x="58.8" y="73.2" width="1.8" height="1.8"/><rect x="60.6" y="73.2" width="1.8" height="1.8"/><rect x="62.4" y="73.2" width="1.8" height="1.8"/><rect x="64.2" y="73.2" width="1.8" height="1.8"/><rect x="66" y="73.2" width="1.8" height="1.8"/><rect x="67.8" y="73.2" width="1.8" height="1.8"/>
    <rect x="51.6" y="75" width="1.8" height="1.8"/><rect x="57" y="75" width="1.8" height="1.8"/><rect x="62.4" y="75" width="1.8" height="1.8"/>
    <rect x="49.8" y="76.8" width="1.8" height="1.8"/><rect x="53.4" y="76.8" width="1.8" height="1.8"/><rect x="55.2" y="76.8" width="1.8" height="1.8"/><rect x="58.8" y="76.8" width="1.8" height="1.8"/><rect x="60.6" y="76.8" width="1.8" height="1.8"/><rect x="64.2" y="76.8" width="1.8" height="1.8"/>
    <rect x="48" y="78.6" width="1.8" height="1.8"/><rect x="49.8" y="78.6" width="1.8" height="1.8"/><rect x="66" y="78.6" width="1.8" height="1.8"/><rect x="67.8" y="78.6" width="1.8" height="1.8"/>
  </g>

  <!-- Octopus 3 at (84, 66) -->
  <g fill="#00ff41">
    <rect x="91.2" y="66" width="1.8" height="1.8"/><rect x="93" y="66" width="1.8" height="1.8"/><rect x="94.8" y="66" width="1.8" height="1.8"/><rect x="96.6" y="66" width="1.8" height="1.8"/>
    <rect x="87.6" y="67.8" width="1.8" height="1.8"/><rect x="89.4" y="67.8" width="1.8" height="1.8"/><rect x="91.2" y="67.8" width="1.8" height="1.8"/><rect x="93" y="67.8" width="1.8" height="1.8"/><rect x="94.8" y="67.8" width="1.8" height="1.8"/><rect x="96.6" y="67.8" width="1.8" height="1.8"/><rect x="98.4" y="67.8" width="1.8" height="1.8"/><rect x="100.2" y="67.8" width="1.8" height="1.8"/>
    <rect x="85.8" y="69.6" width="1.8" height="1.8"/><rect x="87.6" y="69.6" width="1.8" height="1.8"/><rect x="89.4" y="69.6" width="1.8" height="1.8"/><rect x="91.2" y="69.6" width="1.8" height="1.8"/><rect x="93" y="69.6" width="1.8" height="1.8"/><rect x="94.8" y="69.6" width="1.8" height="1.8"/><rect x="96.6" y="69.6" width="1.8" height="1.8"/><rect x="98.4" y="69.6" width="1.8" height="1.8"/><rect x="100.2" y="69.6" width="1.8" height="1.8"/><rect x="102" y="69.6" width="1.8" height="1.8"/>
    <rect x="84" y="71.4" width="1.8" height="1.8"/><rect x="85.8" y="71.4" width="1.8" height="1.8"/><rect x="91.2" y="71.4" width="1.8" height="1.8"/><rect x="93" y="71.4" width="1.8" height="1.8"/><rect x="98.4" y="71.4" width="1.8" height="1.8"/><rect x="100.2" y="71.4" width="1.8" height="1.8"/><rect x="103.8" y="71.4" width="1.8" height="1.8"/>
    <rect x="84" y="73.2" width="1.8" height="1.8"/><rect x="85.8" y="73.2" width="1.8" height="1.8"/><rect x="87.6" y="73.2" width="1.8" height="1.8"/><rect x="89.4" y="73.2" width="1.8" height="1.8"/><rect x="91.2" y="73.2" width="1.8" height="1.8"/><rect x="93" y="73.2" width="1.8" height="1.8"/><rect x="94.8" y="73.2" width="1.8" height="1.8"/><rect x="96.6" y="73.2" width="1.8" height="1.8"/><rect x="98.4" y="73.2" width="1.8" height="1.8"/><rect x="100.2" y="73.2" width="1.8" height="1.8"/><rect x="102" y="73.2" width="1.8" height="1.8"/><rect x="103.8" y="73.2" width="1.8" height="1.8"/>
    <rect x="87.6" y="75" width="1.8" height="1.8"/><rect x="93" y="75" width="1.8" height="1.8"/><rect x="98.4" y="75" width="1.8" height="1.8"/>
    <rect x="85.8" y="76.8" width="1.8" height="1.8"/><rect x="89.4" y="76.8" width="1.8" height="1.8"/><rect x="91.2" y="76.8" width="1.8" height="1.8"/><rect x="94.8" y="76.8" width="1.8" height="1.8"/><rect x="96.6" y="76.8" width="1.8" height="1.8"/><rect x="100.2" y="76.8" width="1.8" height="1.8"/>
    <rect x="84" y="78.6" width="1.8" height="1.8"/><rect x="85.8" y="78.6" width="1.8" height="1.8"/><rect x="102" y="78.6" width="1.8" height="1.8"/><rect x="103.8" y="78.6" width="1.8" height="1.8"/>
  </g>

  <!-- Player bullet (green) -->
  <rect x="63" y="85" width="2" height="7" fill="#00ff41"/>

  <!-- Player ship at bottom center — sprite "player" 15x8, pixel size ~1.6 -->
  <g fill="#00ff41">
    <!-- 000000100000000 — row 0 -->
    <rect x="59.6" y="98" width="1.6" height="1.6"/>
    <!-- 000001110000000 — row 1 -->
    <rect x="58" y="99.6" width="1.6" height="1.6"/><rect x="59.6" y="99.6" width="1.6" height="1.6"/><rect x="61.2" y="99.6" width="1.6" height="1.6"/>
    <!-- 000001110000000 — row 2 -->
    <rect x="58" y="101.2" width="1.6" height="1.6"/><rect x="59.6" y="101.2" width="1.6" height="1.6"/><rect x="61.2" y="101.2" width="1.6" height="1.6"/>
    <!-- 011111111111100 — row 3 -->
    <rect x="49.6" y="102.8" width="1.6" height="1.6"/><rect x="51.2" y="102.8" width="1.6" height="1.6"/><rect x="52.8" y="102.8" width="1.6" height="1.6"/><rect x="54.4" y="102.8" width="1.6" height="1.6"/><rect x="56" y="102.8" width="1.6" height="1.6"/><rect x="57.6" y="102.8" width="1.6" height="1.6"/><rect x="59.2" y="102.8" width="1.6" height="1.6"/><rect x="60.8" y="102.8" width="1.6" height="1.6"/><rect x="62.4" y="102.8" width="1.6" height="1.6"/><rect x="64" y="102.8" width="1.6" height="1.6"/><rect x="65.6" y="102.8" width="1.6" height="1.6"/><rect x="67.2" y="102.8" width="1.6" height="1.6"/>
    <!-- 111111111111110 — rows 4-7 (solid block) -->
    <rect x="48" y="104.4" width="1.6" height="1.6"/><rect x="49.6" y="104.4" width="1.6" height="1.6"/><rect x="51.2" y="104.4" width="1.6" height="1.6"/><rect x="52.8" y="104.4" width="1.6" height="1.6"/><rect x="54.4" y="104.4" width="1.6" height="1.6"/><rect x="56" y="104.4" width="1.6" height="1.6"/><rect x="57.6" y="104.4" width="1.6" height="1.6"/><rect x="59.2" y="104.4" width="1.6" height="1.6"/><rect x="60.8" y="104.4" width="1.6" height="1.6"/><rect x="62.4" y="104.4" width="1.6" height="1.6"/><rect x="64" y="104.4" width="1.6" height="1.6"/><rect x="65.6" y="104.4" width="1.6" height="1.6"/><rect x="67.2" y="104.4" width="1.6" height="1.6"/><rect x="68.8" y="104.4" width="1.6" height="1.6"/>
    <rect x="48" y="106" width="22.4" height="6.4"/>
  </g>

  <!-- Alien bullets (red) -->
  <rect x="22" y="42" width="2" height="5" fill="#ff0040"/>
  <rect x="95" y="62" width="2" height="5" fill="#ff0040"/>

  <!-- HUD separator line -->
  <line x1="6" y1="15" x2="122" y2="15" stroke="#00ff41" stroke-width="0.5" opacity="0.3"/>

  <!-- HUD text -->
  <text x="10" y="11" font-family="Courier New, monospace" font-size="7" fill="#00ff41" font-weight="bold">SCORE:1337</text>
  <text x="118" y="11" font-family="Courier New, monospace" font-size="7" fill="#ff0040" font-weight="bold" text-anchor="end">&#9829;&#9829;&#9829;</text>

  <!-- Subtle glow effects -->
  <rect x="62" y="84" width="4" height="9" fill="#00ff41" opacity="0.15" rx="2"/>
</svg>
